# xmcd
#
# Track frame offsets:
# 150
# 14040
# 35833
# 60604
# 81489
# 104080
# 125163
# 144048
# 163259
# 190867
# 205837
# 223212
# 242271
#
# Disc length: 3464 seconds
#
# Revision: 4
# Processed by: cddbd v1.4PL0 Copyright (c) Steve Scherf et al.
# Submitted via: Axialis_AX_CDPlayer 2.6
#
DISCID=c70d860d
DTITLE=Chris Rea - Stony Road
DYEAR=1900
DGENRE=
TTITLE0=Changing Times
TTITLE1=Easy Rider
TTITLE2=Stony Road
TTITLE3=Dancing The Blues Away
TTITLE4=Burning Feet
TTITLE5=Mississippi
TTITLE6=Slow Dance
TTITLE7=When The Good Lord Talked To Jesus
TTITLE8=Heading For The City
TTITLE9=So Lonely
TTITLE10=Someday My Peace Will Come
TTITLE11=The Hustler
TTITLE12=Give That Girl A Diamond
EXTD=
EXTT0=
EXTT1=
EXTT2=
EXTT3=
EXTT4=
EXTT5=
EXTT6=
EXTT7=
EXTT8=
EXTT9=
EXTT10=
EXTT11=
EXTT12=
PLAYORDER=
